<svg version="1.1" viewBox="0.0 0.0 113.14173228346456 113.11548556430446" fill="none" stroke="none" stroke-linecap="square" stroke-miterlimit="10" xmlns:xlink="http://www.w3.org/1999/xlink" xmlns="http://www.w3.org/2000/svg"><clipPath id="p.0"><path d="m0 0l113.14173 0l0 113.115486l-113.14173 0l0 -113.115486z" clip-rule="nonzero"/></clipPath><g clip-path="url(#p.0)"><path fill="#000000" fill-opacity="0.0" d="m0 0l113.14173 0l0 113.115486l-113.14173 0z" fill-rule="evenodd"/><path fill="#9fc5e8" d="m0 56.72441l0 0c0 -31.328028 25.382282 -56.72441 56.692913 -56.72441l0 0c15.0358925 0 29.45596 5.9763045 40.08794 16.614195c10.631989 10.63789 16.604973 25.065966 16.604973 40.110214l0 0c0 31.328026 -25.382278 56.72441 -56.692913 56.72441l0 0c-31.31063 0 -56.692913 -25.396385 -56.692913 -56.72441z" fill-rule="evenodd"/><path fill="#000000" fill-opacity="0.0" d="m33.710278 26.969307c-3.1639366 1.1868725 -7.40798 1.0033646 -9.435432 3.7075348c-1.9958878 2.6620712 -3.257471 6.6861076 -2.022047 9.7757c0.47568703 1.1896133 2.0482388 1.7911224 2.3590546 3.0340805c0.79228973 3.1683578 1.212904 7.9714317 4.380316 8.76355c5.023247 1.2562294 3.7383842 -9.716026 6.402363 -14.1574745c2.0060272 -3.3444939 5.1160736 -8.70257 2.3590546 -11.46051c-1.2018623 -1.2022648 -5.054329 -1.0260181 -5.054329 0.6742401" fill-rule="evenodd"/><path stroke="#ffffff" stroke-width="3.0" stroke-linejoin="round" stroke-linecap="butt" d="m33.710278 26.969307c-3.1639366 1.1868725 -7.40798 1.0033646 -9.435432 3.7075348c-1.9958878 2.6620712 -3.257471 6.6861076 -2.022047 9.7757c0.47568703 1.1896133 2.0482388 1.7911224 2.3590546 3.0340805c0.79228973 3.1683578 1.212904 7.9714317 4.380316 8.76355c5.023247 1.2562294 3.7383842 -9.716026 6.402363 -14.1574745c2.0060272 -3.3444939 5.1160736 -8.70257 2.3590546 -11.46051c-1.2018623 -1.2022648 -5.054329 -1.0260181 -5.054329 0.6742401" fill-rule="evenodd"/><path fill="#000000" fill-opacity="0.0" d="m94.352715 32.36322c-10.792557 0 -21.665512 -2.875288 -32.349606 -1.3484802c-5.5877113 0.7985115 -12.827209 6.9951096 -11.457478 12.47266c1.5952339 6.3793488 12.29715 5.730255 18.870865 5.730255c3.4365616 0 6.739624 2.6969109 10.109451 2.0227242c2.9554062 -0.5912819 1.6321564 -6.2811317 4.0433044 -8.090099c3.8983078 -2.9247093 10.218361 -2.5053978 13.141731 -6.405285c1.1153488 -1.4879112 -0.49912262 -5.056015 -2.3582687 -5.056015" fill-rule="evenodd"/><path stroke="#ffffff" stroke-width="3.0" stroke-linejoin="round" stroke-linecap="butt" d="m94.352715 32.36322c-10.792557 0 -21.665512 -2.875288 -32.349606 -1.3484802c-5.5877113 0.7985115 -12.827209 6.9951096 -11.457478 12.47266c1.5952339 6.3793488 12.29715 5.730255 18.870865 5.730255c3.4365616 0 6.739624 2.6969109 10.109451 2.0227242c2.9554062 -0.5912819 1.6321564 -6.2811317 4.0433044 -8.090099c3.8983078 -2.9247093 10.218361 -2.5053978 13.141731 -6.405285c1.1153488 -1.4879112 -0.49912262 -5.056015 -2.3582687 -5.056015" fill-rule="evenodd"/><path fill="#000000" fill-opacity="0.0" d="m42.79514 60.006477c-6.4680977 0 -19.973536 0.5212593 -18.196064 6.742401c0.7232208 2.5312653 4.2044296 3.1944733 6.0653553 5.056015c1.9389591 1.9396133 4.2867565 5.94561 6.7393703 4.718895c1.5693092 -0.7849121 2.3173523 -2.6405487 3.370079 -4.044655c1.5906067 -2.1215134 5.9663734 -2.1038895 6.402363 -4.719681c0.41016388 -2.4608612 0.75250244 -5.651741 -1.0110245 -7.4158554c-1.1231766 -1.1235504 -4.7173233 0.91469955 -4.7173233 -0.6742401" fill-rule="evenodd"/><path stroke="#ffffff" stroke-width="3.0" stroke-linejoin="round" stroke-linecap="butt" d="m42.79514 60.006477c-6.4680977 0 -19.973536 0.5212593 -18.196064 6.742401c0.7232208 2.5312653 4.2044296 3.1944733 6.0653553 5.056015c1.9389591 1.9396133 4.2867565 5.94561 6.7393703 4.718895c1.5693092 -0.7849121 2.3173523 -2.6405487 3.370079 -4.044655c1.5906067 -2.1215134 5.9663734 -2.1038895 6.402363 -4.719681c0.41016388 -2.4608612 0.75250244 -5.651741 -1.0110245 -7.4158554c-1.1231766 -1.1235504 -4.7173233 0.91469955 -4.7173233 -0.6742401" fill-rule="evenodd"/><path fill="#000000" fill-opacity="0.0" d="m95.3635 61.35481c-7.3774414 -0.7379875 -15.206665 -2.6833115 -22.240158 -0.33712006c-4.4957275 1.4996605 -9.531452 7.8946877 -7.4133835 12.13554c1.9214249 3.8471222 7.915085 5.2251816 12.130707 4.381775c3.23938 -0.6480942 4.9109726 -4.822403 8.087402 -5.730255c2.3760529 -0.67910004 5.666031 1.7479324 7.4133835 0c2.4737625 -2.4745789 4.140106 -8.884876 1.0110245 -10.44994" fill-rule="evenodd"/><path stroke="#ffffff" stroke-width="3.0" stroke-linejoin="round" stroke-linecap="butt" d="m95.3635 61.35481c-7.3774414 -0.7379875 -15.206665 -2.6833115 -22.240158 -0.33712006c-4.4957275 1.4996605 -9.531452 7.8946877 -7.4133835 12.13554c1.9214249 3.8471222 7.915085 5.2251816 12.130707 4.381775c3.23938 -0.6480942 4.9109726 -4.822403 8.087402 -5.730255c2.3760529 -0.67910004 5.666031 1.7479324 7.4133835 0c2.4737625 -2.4745789 4.140106 -8.884876 1.0110245 -10.44994" fill-rule="evenodd"/><path fill="#000000" fill-opacity="0.0" d="m54.252598 87.313286c-8.0975 0 -26.731842 3.0359268 -22.240158 9.775696c2.7815094 4.1736603 10.317497 6.827095 14.489761 4.044655c1.2573395 -0.838501 1.6298866 -2.809349 3.0330734 -3.3704147c1.6816368 -0.67240906 2.9603882 2.2567902 4.7173233 2.6961746c4.192112 1.048378 9.748028 1.032608 12.804722 -2.0227203c4.4671936 -4.4652023 -8.511669 -11.79763 -14.826771 -11.79763" fill-rule="evenodd"/><path stroke="#ffffff" stroke-width="3.0" stroke-linejoin="round" stroke-linecap="butt" d="m54.252598 87.313286c-8.0975 0 -26.731842 3.0359268 -22.240158 9.775696c2.7815094 4.1736603 10.317497 6.827095 14.489761 4.044655c1.2573395 -0.838501 1.6298866 -2.809349 3.0330734 -3.3704147c1.6816368 -0.67240906 2.9603882 2.2567902 4.7173233 2.6961746c4.192112 1.048378 9.748028 1.032608 12.804722 -2.0227203c4.4671936 -4.4652023 -8.511669 -11.79763 -14.826771 -11.79763" fill-rule="evenodd"/><path fill="#000000" fill-opacity="0.0" d="m98.821526 21.35433l-84.0 -0.18897629" fill-rule="evenodd"/><path stroke="#ffffff" stroke-width="4.0" stroke-linejoin="round" stroke-linecap="butt" d="m98.821526 21.35433l-84.0 -0.18897629" fill-rule="evenodd"/><path fill="#000000" fill-opacity="0.0" d="m14.824147 21.0l0 78.86614" fill-rule="evenodd"/><path stroke="#ffffff" stroke-width="4.0" stroke-linejoin="round" stroke-linecap="butt" d="m14.824147 21.0l0 78.86614" fill-rule="evenodd"/><path fill="#000000" fill-opacity="0.0" d="m98.821526 21.0l-0.15748596 78.86614" fill-rule="evenodd"/><path stroke="#ffffff" stroke-width="4.0" stroke-linejoin="round" stroke-linecap="butt" d="m98.821526 21.0l-0.15748596 78.86614" fill-rule="evenodd"/><path fill="#ffffff" d="m12.881889 19.587936l0 0c0 -0.29281807 0.23737621 -0.5301933 0.5301943 -0.5301933l2.1207142 0l0 0c0.14061642 0 0.2754736 0.055858612 0.37490368 0.1552906c0.099430084 0.099430084 0.1552906 0.23428726 0.1552906 0.37490273l0 2.1207142c0 0.29281807 -0.23737621 0.53019524 -0.5301943 0.53019524l-2.1207142 0c-0.29281807 0 -0.5301943 -0.23737717 -0.5301943 -0.53019524z" fill-rule="evenodd"/><path fill="#ffffff" d="m97.51181 19.805784l0 0c0 -0.29281807 0.23737335 -0.5301933 0.53019714 -0.5301933l2.1207123 0l0 0c0.14061737 0 0.27547455 0.055858612 0.37490082 0.1552906c0.0994339 0.099430084 0.15529633 0.23428726 0.15529633 0.37490273l0 2.1207142c0 0.29281807 -0.23738098 0.53019524 -0.53019714 0.53019524l-2.1207123 0c-0.2928238 0 -0.53019714 -0.23737717 -0.53019714 -0.53019524z" fill-rule="evenodd"/></g></svg>